# xmcd
#
# Track frame offsets:
#	150
#	1677
#	22764
#	35652
#	50539
#	66977
#	94902
#	119774
#	130542
#	144807
#	162684
#
# Disc length: 2463 seconds
#
# Revision: 0
# Processed by: cddbd v1.4PL0 Copyright (c) Steve Scherf et al.
# Submitted via: dBpowerAMP V4.0
#
DISCID=8e099d0b
DTITLE=Bob Dylan - Greatest Hits
DYEAR=1900
DGENRE=Avantgarde
TTITLE0=Rainy Day Women
TTITLE1=Blowin In The Wind
TTITLE2=The Times They Are A-Changin
TTITLE3=It Aint't Me Babe
TTITLE4=Like A Rolling Stone
TTITLE5=Mr Tambourine Man
TTITLE6=Subterranean Homesick Blues
TTITLE7=I Want You
TTITLE8=Positively 4th Street
TTITLE9=Just Like A Women
TTITLE10=Unknown Track
EXTD=
EXTT0=
EXTT1=
EXTT2=
EXTT3=
EXTT4=
EXTT5=
EXTT6=
EXTT7=
EXTT8=
EXTT9=
EXTT10=
PLAYORDER=
